<svg width="64" height="64" viewBox="18 10 28 40" fill="none" xmlns="http://www.w3.org/2000/svg">
  <circle cx="32" cy="30" r="12" fill="#E4BE72"/>
  <circle cx="32" cy="30" r="7" fill="#FFF7D6"/>
  <path
    d="M24 22.5C24 20.567 25.567 19 27.5 19H36.5C38.433 19 40 20.567 40 22.5V24.5H42C43.1046 24.5 44 25.3954 44 26.5C44 27.6046 43.1046 28.5 42 28.5H41.25L39.3171 44.9268C39.1384 46.445 37.8514 47.5898 36.3227 47.5898H27.6773C26.1486 47.5898 24.8616 46.445 24.6829 44.9268L22.75 28.5H22C20.8954 28.5 20 27.6046 20 26.5C20 25.3954 20.8954 24.5 22 24.5H24V22.5Z"
    fill="#2B5135"
  />
  <path
    d="M28 14.5C28 12.567 29.567 11 31.5 11H32.5C34.433 11 36 12.567 36 14.5V18H28V14.5Z"
    fill="#406D4A"
  />
  <path
    d="M27.5 28H36.5L35.5207 42.6949C35.4498 43.7578 34.5666 44.5833 33.5014 44.5833H30.4986C29.4334 44.5833 28.5502 43.7578 28.4793 42.6949L27.5 28Z"
    fill="#F3EDE3"
  />
  <path
    d="M32 30C33.933 30 35.5 31.567 35.5 33.5C35.5 36.168 32 40 32 40C32 40 28.5 36.168 28.5 33.5C28.5 31.567 30.067 30 32 30Z"
    fill="#E4BE72"
  />
</svg>
